<svg xmlns="http://www.w3.org/2000/svg" xmlns:xlink="http://www.w3.org/1999/xlink" viewBox="0 0 359.11 311.07"><defs><style>.cls-1,.cls-3,.cls-4,.cls-6{fill:#fff;}.cls-1,.cls-11,.cls-7,.cls-9{stroke:#263238;}.cls-1,.cls-11,.cls-13,.cls-14,.cls-7,.cls-9{stroke-linecap:round;stroke-linejoin:round;}.cls-11,.cls-2{fill:#c6ff00;}.cls-3{opacity:0.7;}.cls-5{opacity:0.15;}.cls-6{opacity:0.5;}.cls-13,.cls-14,.cls-7{fill:none;}.cls-8,.cls-9{fill:#263238;}.cls-10{clip-path:url(#clip-path);}.cls-12{clip-path:url(#clip-path-2);}.cls-13,.cls-14{stroke:#fff;}.cls-13{stroke-width:0.5px;}.cls-14{stroke-width:0.75px;}.cls-15{clip-path:url(#clip-path-3);}</style><clipPath id="clip-path"><path id="_Trazado_de_recorte_" data-name="&lt;Trazado de recorte&gt;" class="cls-1" d="M116.72,184.09h62a1.29,1.29,0,0,0,1.19-.78l18.16-40.42a1.3,1.3,0,0,0-1.19-1.82h-62a1.3,1.3,0,0,0-1.19.77l-18.16,40.43A1.3,1.3,0,0,0,116.72,184.09Z"/></clipPath><clipPath id="clip-path-2"><path id="_Trazado_de_recorte_2" data-name="&lt;Trazado de recorte&gt;" class="cls-1" d="M232.6,183.63h39a.76.76,0,0,0,.7-.45l10.81-24.65a.76.76,0,0,0-.69-1.06h-39a.77.77,0,0,0-.7.45L231.9,182.57A.76.76,0,0,0,232.6,183.63Z"/></clipPath><clipPath id="clip-path-3"><path id="_Trazado_de_recorte_3" data-name="&lt;Trazado de recorte&gt;" class="cls-1" d="M48.79,187.29s-3-12.67-2.66-19.67,6.66-16,24.33-15,27,18,25.67,31.67,0,40.33,9.33,46S135.79,232,135.79,232s3,.67.67,3-21.67,5.67-31.33,7c-7.38,1-26,.49-34.42.18A16.63,16.63,0,0,1,59.15,237a17.14,17.14,0,0,1-3-4.41C51.23,222.34,48.79,187.29,48.79,187.29Z"/></clipPath></defs><title>hero-img</title><g id="Background_Simple" data-name="Background Simple"><path class="cls-2" d="M346.67,156.37c-14.57,37.6-48.61,66.13-84,79.71-27.46,10.54-56.67,9.5-85.79.45-27.63-8.59-53-22.52-81.38-16.24-22.27,4.93-47.37,12-67.49-8.32-10-10.15-16.71-23.9-21.11-38-14-44.7-7-92,23-121.35,25.64-25.14,62.29-37.26,97.64-35.11a114.81,114.81,0,0,1,20.14,3c17.47,4.25,36.53,10.9,54.45,8.49,21.12-2.84,35.78-18.9,55-26.26C277-4.88,297.6,4.11,313.43,21.24,346.57,57.09,364.22,111.05,346.67,156.37Z"/><path class="cls-3" d="M346.67,156.37c-14.57,37.6-48.61,66.13-84,79.71-27.46,10.54-56.67,9.5-85.79.45-27.63-8.59-53-22.52-81.38-16.24-22.27,4.93-47.37,12-67.49-8.32-10-10.15-16.71-23.9-21.11-38-14-44.7-7-92,23-121.35,25.64-25.14,62.29-37.26,97.64-35.11a114.81,114.81,0,0,1,20.14,3c17.47,4.25,36.53,10.9,54.45,8.49,21.12-2.84,35.78-18.9,55-26.26C277-4.88,297.6,4.11,313.43,21.24,346.57,57.09,364.22,111.05,346.67,156.37Z"/></g><g id="Window"><polygon class="cls-4" points="223.93 41.75 139.28 41.75 140.14 33.88 224.79 33.88 223.93 41.75"/><polygon class="cls-4" points="223.93 52.76 139.28 52.76 140.14 44.9 224.79 44.9 223.93 52.76"/><polygon class="cls-4" points="223.93 63.78 139.28 63.78 140.14 55.91 224.79 55.91 223.93 63.78"/><polygon class="cls-4" points="223.93 74.79 139.28 74.79 140.14 66.92 224.79 66.92 223.93 74.79"/><polygon class="cls-4" points="223.93 85.8 139.28 85.8 140.14 77.94 224.79 77.94 223.93 85.8"/><polygon class="cls-4" points="223.93 96.82 139.28 96.82 140.14 88.95 224.79 88.95 223.93 96.82"/><polygon class="cls-4" points="223.93 107.83 139.28 107.83 140.14 99.96 224.79 99.96 223.93 107.83"/><polygon class="cls-4" points="223.93 118.84 139.28 118.84 140.14 110.98 224.79 110.98 223.93 118.84"/><polygon class="cls-4" points="223.93 129.86 139.28 129.86 140.14 121.99 224.79 121.99 223.93 129.86"/><polygon class="cls-4" points="223.93 140.87 139.28 140.87 140.14 133 224.79 133 223.93 140.87"/><polygon class="cls-4" points="223.93 151.88 139.28 151.88 140.14 144.02 224.79 144.02 223.93 151.88"/><polygon class="cls-4" points="313.44 41.75 228.79 41.75 229.64 33.88 314.29 33.88 313.44 41.75"/><polygon class="cls-4" points="313.44 52.76 228.79 52.76 229.64 44.9 314.29 44.9 313.44 52.76"/><polygon class="cls-4" points="313.44 63.78 228.79 63.78 229.64 55.91 314.29 55.91 313.44 63.78"/><polygon class="cls-4" points="313.44 74.79 228.79 74.79 229.64 66.92 314.29 66.92 313.44 74.79"/><polygon class="cls-4" points="313.44 85.8 228.79 85.8 229.64 77.94 314.29 77.94 313.44 85.8"/><polygon class="cls-4" points="313.44 96.82 228.79 96.82 229.64 88.95 314.29 88.95 313.44 96.82"/><polygon class="cls-4" points="313.44 107.83 228.79 107.83 229.64 99.96 314.29 99.96 313.44 107.83"/><polygon class="cls-4" points="313.44 118.84 228.79 118.84 229.64 110.98 314.29 110.98 313.44 118.84"/><polygon class="cls-4" points="313.44 129.86 228.79 129.86 229.64 121.99 314.29 121.99 313.44 129.86"/><polygon class="cls-4" points="313.44 140.87 228.79 140.87 229.64 133 314.29 133 313.44 140.87"/><polygon class="cls-4" points="313.44 151.88 228.79 151.88 229.64 144.02 314.29 144.02 313.44 151.88"/><path class="cls-4" d="M41,58H74.84a0,0,0,0,1,0,0V68.23a0,0,0,0,1,0,0H41a5.13,5.13,0,0,1-5.13-5.13v0A5.13,5.13,0,0,1,41,58Z"/><path class="cls-4" d="M74.84,45.16H41a5.12,5.12,0,0,0-5.13,5.12h0A5.12,5.12,0,0,0,41,55.41H74.84Z"/><rect class="cls-4" x="77.91" y="33.37" width="12.31" height="34.35"/><rect class="cls-4" x="93.29" y="33.37" width="12.31" height="34.35"/><rect class="cls-4" x="108.68" y="33.37" width="12.31" height="34.35"/><polygon class="cls-5" points="128.41 68.63 31.79 68.63 31.79 74.36 39.63 74.36 39.63 88.55 44.29 88.55 44.29 74.36 113.63 74.36 113.63 88.55 118.29 88.55 118.29 74.36 128.41 74.36 128.41 68.63"/></g><g id="Plants"><path class="cls-2" d="M322.46,167.57s-3.5,4-5.5,12,7,14,4,22.5-8.5,12.5-7,21,8,9,3,18.5-9.5,13-8,22,20.5,20.5,20.5,20.5,13-14.5,13.5-24-11.5-15.5-9.5-24,7-15.5,6.5-23.5-10-14-10-20,4-9.5,4-16.5-9-13-9-17a29.56,29.56,0,0,1,2-9S317.46,156.07,322.46,167.57Z"/><path class="cls-6" d="M322.46,167.57s-3.5,4-5.5,12,7,14,4,22.5-8.5,12.5-7,21,8,9,3,18.5-9.5,13-8,22,20.5,20.5,20.5,20.5,13-14.5,13.5-24-11.5-15.5-9.5-24,7-15.5,6.5-23.5-10-14-10-20,4-9.5,4-16.5-9-13-9-17a29.56,29.56,0,0,1,2-9S317.46,156.07,322.46,167.57Z"/><line class="cls-7" x1="327.46" y1="281.07" x2="326.46" y2="173.07"/><polyline class="cls-7" points="337.55 256.34 327.75 266.14 316.64 256.34"/><polyline class="cls-7" points="334.28 213.24 327.1 224.34 320.89 214.21"/><polyline class="cls-7" points="322.52 180.58 326.77 185.8 330.36 179.6"/><rect class="cls-8" x="314.96" y="281.07" width="25" height="28"/></g><g id="Table"><path class="cls-9" d="M218.43,195.62l9.41,112a1.23,1.23,0,0,0,1.48,1,1.2,1.2,0,0,0,.91-1.29l-6.41-111.75Z"/><path class="cls-9" d="M281.66,195.62,291.1,308a1.23,1.23,0,0,0,1.48,1,1.2,1.2,0,0,0,.91-1.29l-6.43-112.12Z"/><path class="cls-9" d="M117.4,195.62l-5,111a1.24,1.24,0,0,0,.93,1.3h0a1.18,1.18,0,0,0,1.46-1l8-111.34Z"/><path class="cls-9" d="M59.12,195.62,54.17,306.28a1.25,1.25,0,0,0,.93,1.31,1.19,1.19,0,0,0,1.46-1l7.93-111Z"/><rect class="cls-1" x="55.61" y="189.42" width="238.35" height="9.62"/><rect class="cls-9" x="55.61" y="189.42" width="238.35" height="3.3"/><rect class="cls-9" x="210.13" y="189.42" width="83.83" height="9.62"/><rect class="cls-1" x="52.63" y="186.22" width="244.32" height="3.67"/><rect class="cls-9" x="213.63" y="186.22" width="83.32" height="3.67"/><polygon class="cls-9" points="188.45 173.44 195.72 185.96 183.19 185.96 188.45 173.44"/><path class="cls-9" d="M111.56,185.88h71.63a1.38,1.38,0,0,0,1.27-.83l19.84-45.22a1.39,1.39,0,0,0-1.28-2H131.39a1.39,1.39,0,0,0-1.27.84l-19.83,45.21A1.39,1.39,0,0,0,111.56,185.88Z"/><path id="_Trazado_de_recorte_4" data-name="&lt;Trazado de recorte&gt;" class="cls-4" d="M116.72,184.09h62a1.29,1.29,0,0,0,1.19-.78l18.16-40.42a1.3,1.3,0,0,0-1.19-1.82h-62a1.3,1.3,0,0,0-1.19.77l-18.16,40.43A1.3,1.3,0,0,0,116.72,184.09Z"/><g class="cls-10"><path class="cls-11" d="M187,167.42c-9.45-1.64-12.73-10.21-21.7-22.18a18.8,18.8,0,0,0-4.39-4.17H134.88a1.3,1.3,0,0,0-1.19.77l-6.75,15c18.77,7.84,21.63-2.88,39.77,4.38A52.05,52.05,0,0,1,184.52,173Z"/><path class="cls-11" d="M164.88,169c-14.64-1.38-43.46,10.06-43.46,10.06l-2.68,5h13.7c10.32-4,22.66-8,30.15-7.73,7.89.25,9.55,4.32,9.79,7.73h2.22C175.72,178.57,175,170,164.88,169Z"/><path class="cls-11" d="M199.2,153.48c0-2.46-3.44-8.2-6.21-12.41h-8.27C189.1,145.91,199.2,156.7,199.2,153.48Z"/></g><path id="_Trazado_de_recorte_5" data-name="&lt;Trazado de recorte&gt;" class="cls-7" d="M116.72,184.09h62a1.29,1.29,0,0,0,1.19-.78l18.16-40.42a1.3,1.3,0,0,0-1.19-1.82h-62a1.3,1.3,0,0,0-1.19.77l-18.16,40.43A1.3,1.3,0,0,0,116.72,184.09Z"/><rect class="cls-8" x="268.69" y="181.39" width="19.96" height="5.12" transform="translate(557.35 367.89) rotate(180)"/><path class="cls-8" d="M279.19,183.13a2,2,0,0,0,2-1.86l3.33-48.62a2,2,0,0,0-1.86-2.13,2,2,0,0,0-2.13,1.86L277.19,181a2,2,0,0,0,1.86,2.13Z"/><path class="cls-8" d="M282.77,135a2,2,0,0,0,1.6-.8,2,2,0,0,0-.41-2.8l-32.8-23.08a1,1,0,0,0-1.17,1.57l31.58,24.72A2,2,0,0,0,282.77,135Z"/><circle class="cls-8" cx="282.77" cy="132.77" r="3.07"/><circle class="cls-8" cx="250.01" cy="110.25" r="3.07"/><path class="cls-8" d="M237,114.46l11.58,9.29,3.88-10a4.39,4.39,0,0,0-1.35-5h0a4.37,4.37,0,0,0-5.16-.22Z"/><path class="cls-1" d="M228.31,185.88h45.76a.9.9,0,0,0,.82-.53l12.67-28.89a.89.89,0,0,0-.82-1.24H241a.89.89,0,0,0-.81.53l-12.68,28.89A.89.89,0,0,0,228.31,185.88Z"/><path id="_Trazado_de_recorte_6" data-name="&lt;Trazado de recorte&gt;" class="cls-4" d="M232.6,183.63h39a.76.76,0,0,0,.7-.45l10.81-24.65a.76.76,0,0,0-.69-1.06h-39a.77.77,0,0,0-.7.45L231.9,182.57A.76.76,0,0,0,232.6,183.63Z"/><g class="cls-12"><path class="cls-11" d="M262.11,159.34a12.26,12.26,0,0,0-2.92-2.66H241.83a.85.85,0,0,0-.79.5l-4.5,9.58c12.5,5,14.4-1.84,26.48,2.78a34.93,34.93,0,0,1,11.87,7.5l1.67-3.57C270.27,172.43,268.09,167,262.11,159.34Z"/><path class="cls-11" d="M261.81,174.5c-9.75-.87-28.95,6.41-28.95,6.41l-1.78,3.18h9.12c6.87-2.55,15.09-5.08,20.08-4.93,5.25.17,6.36,2.76,6.52,4.93h1.48C269,180.57,268.54,175.1,261.81,174.5Z"/><path class="cls-11" d="M280.53,156.68H275c2.91,3.09,9.64,10,9.64,7.91C284.66,163,282.37,159.37,280.53,156.68Z"/></g><path id="_Trazado_de_recorte_7" data-name="&lt;Trazado de recorte&gt;" class="cls-7" d="M232.6,183.63h39a.76.76,0,0,0,.7-.45l10.81-24.65a.76.76,0,0,0-.69-1.06h-39a.77.77,0,0,0-.7.45L231.9,182.57A.76.76,0,0,0,232.6,183.63Z"/><rect class="cls-1" x="205.96" y="183.97" width="68.75" height="2.25"/><rect class="cls-1" x="241.38" y="183.97" width="33.33" height="2.25"/><rect class="cls-1" x="200.24" y="168.34" width="12.13" height="17.92"/><path class="cls-1" d="M211.82,183.82h-1.26a1,1,0,0,1,0-2h1.26a1.9,1.9,0,0,0,1.9-1.89v-4.35a1.9,1.9,0,0,0-1.9-1.89h-1.63a1,1,0,0,1,0-2h1.63a3.9,3.9,0,0,1,3.9,3.89v4.35A3.9,3.9,0,0,1,211.82,183.82Z"/></g><g id="Character"><path class="cls-1" d="M129.68,92.5s2.75,8.52,2.75,10.17a30.29,30.29,0,0,1-.27,3.57l2.43,3.76a1,1,0,0,1-.35,1.46l-3.73,2.2s-.55,8.79-1.1,9.89-9.89.83-9.89.83l-3,5.77-15.66-6.05L105,112.84l-.83-17S113.75,87.28,129.68,92.5Z"/><path class="cls-1" d="M118.69,113.66l2.2.55a7.55,7.55,0,0,0,1.65,5.77"/><line class="cls-7" x1="121.23" y1="107.78" x2="136.7" y2="103.95"/><path class="cls-7" d="M132.72,103.64l3.52.15s1.23,4-2.45,4.44"/><path class="cls-9" d="M111.55,86.18s-6-1.92-9.07,6.32,2.48,19,2.48,20.34,4.67,2.47,8.24,2.47a8.81,8.81,0,0,0,5.49-1.65s-1.37-5.5-.27-6.59,3.85,1.37,3.85,1.37a8.37,8.37,0,0,0,2.47-.82c.82-.55,4.94-2.75,3.57-5.23s-4.12-4.67-1.92-6.31,8-1.93,8.24-7.15-3-6.32-6.32-5.77-2.2-4.67-8.52-3.84S110.45,83.71,111.55,86.18Z"/><path class="cls-13" d="M112.51,104.89a11.46,11.46,0,0,0-1,2.62"/><path class="cls-13" d="M126.59,95.08s-1.91,1.67-7.89,4.06a11.65,11.65,0,0,0-5.23,4.16"/><path class="cls-13" d="M126.11,99.62s-6.93,4.54-10,5.5"/><path class="cls-9" d="M176,143a66.45,66.45,0,0,0,10.55,12.71s-3.83-8.53-9.51-13.57C176.49,141.65,175.6,142.38,176,143Z"/><path class="cls-1" d="M153.88,176l20.25-15.25s0-7,1-8.5,9.25-4,9.25-4,2.25-2.75,3.5,0a5.08,5.08,0,0,1-.5,5,46.36,46.36,0,0,1,0,6c-.25,1.5-9,5.25-9,5.25s-12,17.75-18,22.75-7.25,6-9.75,7-7-6.25-7-6.25Z"/><path class="cls-9" d="M117.13,293s14.25,9,16.75,9,3.75,2.25,2.5,2.5-9,.5-14.25.75-8.75-.25-11.75-.25-6.5.25-8-.5,1-9.25,1-10.75S115.38,292,117.13,293Z"/><path class="cls-1" d="M135.51,302.35c-5.53,1.82-14.5.62-19.88.13-4.26-.38-10.9-.47-13.69-.49-.11,1.28,0,2.26.44,2.49,1.5.75,5,.5,8,.5s6.5.5,11.75.25,13-.5,14.25-.75C137.31,304.3,136.85,303,135.51,302.35Z"/><path class="cls-11" d="M128.38,231.22l-11.24,56.34,2.34,5.86a11.76,11.76,0,0,1-7.1,4.8,54.33,54.33,0,0,1-9.75,1s-1.25-6.25-.5-7,1-3.75,1-3.75l6.5-56.75Z"/><path class="cls-9" d="M162.63,291.08s8.75,7.25,12.75,8.5,8.25,2.5,8.25,3.75-9.5,2.5-16.75,1.75-18.25-4-20.75-4-2-6.5-2-7.5S156.38,284.58,162.63,291.08Z"/><path class="cls-1" d="M183.63,303.33c0-.45-.56-.9-1.45-1.35a77,77,0,0,1-21.55-.15c-7.2-1-13.22-2.41-16.3-3.17.26,1.34.78,2.42,1.8,2.42,2.5,0,13.5,3.25,20.75,4S183.63,304.58,183.63,303.33Z"/><path class="cls-11" d="M119.13,206a114,114,0,0,1,22.5.5c12.75,1.5,31.5,3.25,32,6.5s-12.38,70.89-12.38,72.64,2,3.5,2.5,4.5a5.78,5.78,0,0,1,.5,2.25s-6.12,6.61-10.87,8.36-8.75.12-9.75.12-1-6.75-.25-10,2-11.5,2.25-12.25,4.25-48.87,4.25-48.87-27.5,6-49.75,3.5-24.5-6-25.75-11.25,1.25-15.75,1.25-15.75Z"/><path class="cls-7" d="M116.31,222.16a16.34,16.34,0,0,1-1.68,2.06"/><path class="cls-7" d="M123.13,208.72a93.2,93.2,0,0,1-5,10.5"/><path class="cls-7" d="M120.13,211.22a26.6,26.6,0,0,1-13,11"/><path class="cls-1" d="M167.17,225c.85-.32,1.68-.66,2.46-1"/><path class="cls-1" d="M149.88,229.72a128.4,128.4,0,0,0,14.17-3.63"/><path class="cls-9" d="M98.13,122.72s-19.5,9.25-22.25,11-4.5,23.5-4.5,27.25,2.75,40.5,3.5,46.75,24.75,10.5,32.75,8.25,15.75-8,15.75-10-.75-19-.25-22.25,5-17,5-17l8.5,24.25a91.32,91.32,0,0,0,10.5-3.5c7.25-3,9-13,9-13s-8-14-10.25-21-3.25-12.25-4.25-13.5-23.5-11.75-27.5-14.5A17.75,17.75,0,0,0,98.13,122.72Z"/><line class="cls-14" x1="128.13" y1="166.72" x2="121.63" y2="157.22"/><line class="cls-14" x1="127.07" y1="165.36" x2="115.63" y2="159.72"/></g><g id="Chair"><path class="cls-9" d="M93.15,237l10,71a1.2,1.2,0,0,0,1.47,1h0a1.19,1.19,0,0,0,.91-1.28l-7-71.88Z"/><path class="cls-9" d="M64.46,237.62l-16.7,69.72a1.21,1.21,0,0,0,1,1.47h0a1.2,1.2,0,0,0,1.32-.86l19.38-67.66Z"/><path class="cls-9" d="M94.77,236.76l-10.62,70.9A1.19,1.19,0,0,0,85.26,309h0a1.19,1.19,0,0,0,1.24-1L100,239Z"/><path class="cls-9" d="M123.48,237l10,71a1.19,1.19,0,0,0,1.46,1h0a1.19,1.19,0,0,0,.91-1.28l-7-71.88Z"/><path id="_Trazado_de_recorte_8" data-name="&lt;Trazado de recorte&gt;" class="cls-4" d="M48.79,187.29s-3-12.67-2.66-19.67,6.66-16,24.33-15,27,18,25.67,31.67,0,40.33,9.33,46S135.79,232,135.79,232s3,.67.67,3-21.67,5.67-31.33,7c-7.38,1-26,.49-34.42.18A16.63,16.63,0,0,1,59.15,237a17.14,17.14,0,0,1-3-4.41C51.23,222.34,48.79,187.29,48.79,187.29Z"/><g class="cls-15"><path class="cls-2" d="M105.13,242c2.36-.32,5.31-.77,8.45-1.29A30.1,30.1,0,0,1,102.65,238c-10.44-5.46-11.93-31.15-10.44-44.32s-8.94-29.55-28.7-30.51c-7.35-.36-12.95.62-17.1,2.34a12.22,12.22,0,0,0-.28,2.12c-.34,7,2.66,19.67,2.66,19.67s2.44,35.05,7.34,45.33a17.14,17.14,0,0,0,3,4.41,16.63,16.63,0,0,0,11.56,5.1C79.12,242.44,97.75,243,105.13,242Z"/><path class="cls-6" d="M105.13,242c2.36-.32,5.31-.77,8.45-1.29A30.1,30.1,0,0,1,102.65,238c-10.44-5.46-11.93-31.15-10.44-44.32s-8.94-29.55-28.7-30.51c-7.35-.36-12.95.62-17.1,2.34a12.22,12.22,0,0,0-.28,2.12c-.34,7,2.66,19.67,2.66,19.67s2.44,35.05,7.34,45.33a17.14,17.14,0,0,0,3,4.41,16.63,16.63,0,0,0,11.56,5.1C79.12,242.44,97.75,243,105.13,242Z"/></g><path id="_Trazado_de_recorte_9" data-name="&lt;Trazado de recorte&gt;" class="cls-7" d="M48.79,187.29s-3-12.67-2.66-19.67,6.66-16,24.33-15,27,18,25.67,31.67,0,40.33,9.33,46S135.79,232,135.79,232s3,.67.67,3-21.67,5.67-31.33,7c-7.38,1-26,.49-34.42.18A16.63,16.63,0,0,1,59.15,237a17.14,17.14,0,0,1-3-4.41C51.23,222.34,48.79,187.29,48.79,187.29Z"/></g><g id="Ground"><rect class="cls-8" x="14.54" y="305.61" width="344.57" height="5.46"/></g></svg>