<?xml version="1.0" encoding="utf-8"?>
<!-- Generator: Adobe Illustrator 23.0.0, SVG Export Plug-In . SVG Version: 6.00 Build 0)  -->
<svg version="1.1" id="Capa_1" xmlns="http://www.w3.org/2000/svg" xmlns:xlink="http://www.w3.org/1999/xlink" x="0px" y="0px"
	 width="364.7px" height="126.2px" viewBox="0 0 364.7 126.2" style="enable-background:new 0 0 364.7 126.2;" xml:space="preserve"
	>
<style type="text/css">
	.st0{fill:#140A82;}
	.st1{fill:#F50A14;}
</style>
<path class="st0" d="M60,121.9c-5,2-10.4,3.1-16.1,3.1c-8.7,0-16.8-2.5-23.6-6.9C8.1,110.3,0,96.7,0,81.2V0h20.2v81.2
	c0,13,10.6,23.6,23.6,23.6c4.2,0,8.1-1.1,11.5-3L60,121.9z"/>
<path class="st1" d="M87.7,0v125H67.4V81.2c0-13-10.6-23.6-23.6-23.6c-4.2,0-8.1,1.1-11.5,3l-4.7-20.2c5-2,10.4-3.1,16.1-3.1
	c8.7,0,16.8,2.5,23.6,6.9V0H87.7z"/>
<g>
	<g>
		<g>
			<path d="M118.3,44.7c0,1.2,0.4,2,1.3,2.7c0.9,0.7,1.9,1.1,3.2,1.1c1.3,0,2.9-0.4,4.9-1.1l1.8,8.7c-3.1,1.4-5.9,2.1-8.5,2.1
				c-3.9,0-7.1-1.2-9.4-3.6c-2.4-2.4-3.6-5.5-3.6-9.3V0.6h10.4V44.7z"/>
			<path d="M173.1,57.1h-10.4v-3.5c-3.1,3.1-7.2,4.7-12.3,4.7c-4.7,0-8.5-1.6-11.4-4.6c-2.9-3.1-4.3-7-4.3-11.9V17.9H145v21.7
				c0,2.7,0.7,5,2.2,6.7c1.4,1.6,3.3,2.5,5.7,2.5c6.5,0,9.7-4.5,9.7-13.5V17.9h10.4V57.1z"/>
			<path d="M194.3,1.8c1.2,1.3,1.8,2.7,1.8,4.4c0,1.7-0.6,3.1-1.8,4.3c-1.2,1.2-2.7,1.7-4.5,1.7s-3.3-0.5-4.5-1.7
				c-1.2-1.2-1.8-2.6-1.8-4.3c0-1.6,0.6-3.1,1.8-4.4c1.2-1.2,2.7-1.8,4.5-1.8S193.1,0.6,194.3,1.8z M184.6,57.1V17.9H195v39.2H184.6
				z"/>
			<path d="M244.7,53.3c0,5.9-1.9,10.5-5.7,13.8c-3.8,3.2-8.9,4.9-15.3,4.9c-9.1,0-15.5-2.9-19.1-8.6l8.4-6.4c1.6,2,3.2,3.5,4.7,4.4
				c1.5,0.9,3.5,1.3,6,1.3c3.4,0,6-0.9,8-2.9c2-2,2.9-4.6,2.9-8v-0.6c-3,2.4-7.1,3.6-12.3,3.6c-5,0-9.4-1.9-13.3-5.6
				c-3.8-3.7-5.7-8.2-5.7-13.5s1.9-9.7,5.7-13.4s8.2-5.5,13.3-5.5c5.1,0,9.3,1.2,12.3,3.6v-2.4h10L244.7,53.3z M231.6,42.9
				c2.1-1.9,3.1-4.3,3.1-7.3c0-3-1-5.4-3.1-7.4c-2.1-1.9-4.6-2.8-7.4-2.8c-3.1,0-5.7,0.9-7.8,2.8s-3.1,4.3-3.1,7.4
				c0,3.1,1,5.5,3.1,7.4c2,1.9,4.6,2.8,7.8,2.8C227,45.8,229.4,44.9,231.6,42.9z"/>
			<path d="M265.9,1.8c1.2,1.3,1.8,2.7,1.8,4.4c0,1.7-0.6,3.1-1.8,4.3s-2.7,1.7-4.5,1.7s-3.3-0.5-4.5-1.7c-1.2-1.2-1.8-2.6-1.8-4.3
				c0-1.6,0.6-3.1,1.8-4.4c1.2-1.2,2.7-1.8,4.5-1.8S264.8,0.6,265.9,1.8z M256.3,57.1V17.9h10.4v39.2H256.3z"/>
		</g>
	</g>
	<g>
		<path d="M150.6,125h-10.4V122c-3.5,2.8-7.8,4.2-12.9,4.2c-5.2,0-9.7-2-13.5-5.9c-3.8-3.9-5.7-8.9-5.7-14.8c0-6,2-10.9,5.8-14.9
			c3.8-3.9,8.3-5.9,13.4-5.9c5.2,0,9.5,1.4,12.9,4.3V68.5h10.4V125z M136.9,113.9c2.3-2.1,3.4-4.9,3.4-8.4c0-3.5-1.1-6.3-3.4-8.5
			c-2.3-2.2-4.9-3.3-7.8-3.3c-3.2,0-5.8,1.1-7.8,3.2c-2.1,2.1-3.1,5-3.1,8.6c0,3.5,1,6.4,3.1,8.5c2,2.1,4.6,3.2,7.8,3.2
			C132,117.2,134.6,116.1,136.9,113.9z"/>
		<path d="M198.6,108.2h-29.8c0.5,2.7,1.7,4.9,3.5,6.6c1.8,1.6,3.8,2.5,6.3,2.5c4.5,0,7.7-1.7,9.7-5.2l9.3,2c-1.6,4-4.2,7-7.5,9
			c-3.3,2-7.1,3.1-11.5,3.1c-5.6,0-10.4-2-14.3-5.8c-3.8-3.8-5.8-8.9-5.8-14.9c0-6,2-11.1,5.9-15c3.8-3.8,8.6-5.8,14.4-5.8
			c5.3,0,10,1.9,13.8,5.6c3.8,3.8,5.8,8.6,6,14.4V108.2z M172.8,95.6c-1.9,1.3-3.1,3.1-3.7,5.3H188c-0.6-2.4-1.8-4.2-3.5-5.4
			c-1.6-1.2-3.6-1.8-5.8-1.8C176.6,93.7,174.6,94.3,172.8,95.6z"/>
		<path d="M233.6,85.6l-0.5,10h-2.3c-9.3,0-14,5.6-14,16.8V125h-10.4V85.9h10.4V93c3.5-5.1,8.2-7.7,14-7.7
			C232,85.3,232.9,85.4,233.6,85.6z"/>
		<path d="M246.8,112.6c0.5,3.5,3.1,5.3,8.1,5.3c1.9,0,3.4-0.4,4.5-1.1c1.1-0.7,1.6-1.6,1.6-2.8c0-1.7-1.4-2.9-4.3-3.5l-8-1.6
			c-3.5-0.7-6.3-2-8.2-4c-2-2-2.9-4.3-2.9-7.1c0-3.8,1.5-6.9,4.4-9.3c2.9-2.4,6.7-3.6,11.6-3.6c4.6,0,8.4,1.1,11.5,3.2
			c3.1,2.1,4.9,4.9,5.6,8.4l-9.9,2c-0.2-1.6-0.9-2.9-2.3-3.9c-1.3-1-3.1-1.5-5.2-1.5c-1.9,0-3.2,0.4-4.1,1.1
			c-0.9,0.8-1.3,1.7-1.3,2.7c0,1.6,1.2,2.7,3.5,3.3l9.3,2c3.4,0.7,5.9,2,7.7,4c1.7,2,2.6,4.3,2.6,7.1c0,4.2-1.6,7.5-4.6,9.7
			c-3.1,2.3-7.3,3.4-12.6,3.4c-4.6,0-8.6-0.9-11.9-2.9c-3.3-1.9-5.2-4.8-5.6-8.6L246.8,112.6z"/>
		<path d="M312.4,90.7c4.1,3.8,6.1,8.8,6.1,14.8c0,6-2,10.9-6.1,14.8c-4.2,3.8-9.1,5.8-15,5.8c-6,0-11-2-15.1-5.8
			c-4.2-3.8-6.2-8.7-6.2-14.8c0-6,2-11,6.2-14.8c4.2-3.8,9.2-5.7,15.1-5.7C303.2,84.9,308.2,86.8,312.4,90.7z M305.1,113.9
			c2.3-2.1,3.4-4.9,3.4-8.4c0-3.5-1.1-6.3-3.4-8.5c-2.3-2.1-4.8-3.2-7.7-3.2c-3,0-5.6,1.1-7.8,3.2c-2.3,2.1-3.5,4.9-3.5,8.5
			c0,3.5,1.2,6.4,3.5,8.5c2.3,2.1,4.9,3.2,7.8,3.2C300.3,117.2,302.8,116.1,305.1,113.9z"/>
		<path d="M360.4,89.2c2.9,3.1,4.3,7.1,4.3,11.9V125h-10.4v-21.7c0-2.7-0.7-5-2.1-6.7c-1.5-1.6-3.4-2.5-5.8-2.5
			c-6.5,0-9.7,4.5-9.7,13.5V125h-10.4V85.9h10.4v3.5c3.1-3.1,7.2-4.7,12.3-4.7C353.7,84.7,357.5,86.2,360.4,89.2z"/>
	</g>
</g>
</svg>
