<?xml version="1.0" encoding="utf-8"?>
<!-- Generator: Adobe Illustrator 22.1.0, SVG Export Plug-In . SVG Version: 6.00 Build 0)  -->
<svg version="1.1" id="Capa_1" xmlns="http://www.w3.org/2000/svg" xmlns:xlink="http://www.w3.org/1999/xlink" x="0px" y="0px"
	 width="168px" height="168px" viewBox="0 0 168 168" style="enable-background:new 0 0 168 168;" xml:space="preserve">
<style type="text/css">
	.st0{fill:#FFFFFF;}
	.st1{fill:#140A82;}
	.st2{fill:#F50A14;}
</style>
<circle class="st0" cx="84" cy="84" r="84"/>
<path class="st1" d="M100.2,142.8c-5,2-10.4,3.1-16.1,3.1c-8.7,0-16.8-2.5-23.6-6.9c-12.2-7.8-20.2-21.4-20.2-36.9V20.9h20.2v81.2
	c0,13,10.6,23.6,23.6,23.6c4.2,0,8.1-1.1,11.5-3L100.2,142.8z"/>
<path class="st2" d="M127.9,20.9v125h-20.2v-43.8c0-13-10.6-23.6-23.6-23.6c-4.2,0-8.1,1.1-11.5,3l-4.7-20.2c5-2,10.4-3.1,16.1-3.1
	c8.7,0,16.8,2.5,23.6,6.9V20.9H127.9z"/>
</svg>
